# xmcd
#
# Track frame offsets: 
#        187
#        15542
#        28632
#        43345
#        54550
#        69675
#        84597
#        100795
#        114890
#        128632
#
# Disc length: 1912 seconds
#
# Revision: 6
# Processed by: cddbd v1.5.2PL0 Copyright (c) Steve Scherf et al.
# Submitted via: ExactAudioCopyFreeDBPlugin 1.0
#
DISCID=7c07760a
DTITLE=Don Williams - Currents
DYEAR=1992
DGENRE=Country
TTITLE0=Only Water (Shining In The Air)
TTITLE1=Too Much Love
TTITLE2=That Song About The River
TTITLE3=Catfish Bates
TTITLE4=So Far, So Good
TTITLE5=In The Family
TTITLE6=Standing Knee Deep In A River (Dying Of Thirst)
TTITLE7=Lone Star State Of Mind
TTITLE8=The Old Trail
TTITLE9=It`s Who You Love
EXTD=
EXTT0=
EXTT1=
EXTT2=
EXTT3=
EXTT4=
EXTT5=
EXTT6=
EXTT7=
EXTT8=
EXTT9=
PLAYORDER=
